<svg xmlns="http://www.w3.org/2000/svg" xmlns:xlink="http://www.w3.org/1999/xlink" contentStyleType="text/css" data-diagram-type="CLASS" height="910px" preserveAspectRatio="none" style="width:467px;height:910px;background:#FFFFFF;" version="1.1" viewBox="0 0 467 910" width="467px" zoomAndPan="magnify"><defs/><g><!--cluster Models--><g class="cluster" data-entity="Models" data-source-line="1" data-uid="ent0002" id="cluster_Models"><path d="M8.5,6 L65.6982,6 A3.75,3.75 0 0 1 68.1982,8.5 L75.1982,28.2969 L457.5,28.2969 A2.5,2.5 0 0 1 460,30.7969 L460,900.5 A2.5,2.5 0 0 1 457.5,903 L8.5,903 A2.5,2.5 0 0 1 6,900.5 L6,8.5 A2.5,2.5 0 0 1 8.5,6" fill="none" style="stroke:#000000;stroke-width:1.5;"/><line style="stroke:#000000;stroke-width:1.5;" x1="6" x2="75.1982" y1="28.2969" y2="28.2969"/><text fill="#000000" font-family="sans-serif" font-size="14" font-weight="bold" lengthAdjust="spacing" textLength="56.1982" x="10" y="20.9951">Models</text></g><!--class Sensor--><g class="entity" data-entity="Sensor" data-source-line="2" data-uid="ent0003" id="entity_Sensor"><rect fill="#F1F1F1" height="162.0781" rx="2.5" ry="2.5" style="stroke:#181818;stroke-width:0.5;" width="282.8945" x="160.5" y="264"/><ellipse cx="273.7031" cy="280" fill="#ADD1B2" rx="11" ry="11" style="stroke:#181818;stroke-width:1;"/><path d="M276.6719,285.6406 Q276.0938,285.9375 275.4531,286.0781 Q274.8125,286.2344 274.1094,286.2344 Q271.6094,286.2344 270.2813,284.5938 Q268.9688,282.9375 268.9688,279.8125 Q268.9688,276.6875 270.2813,275.0313 Q271.6094,273.375 274.1094,273.375 Q274.8125,273.375 275.4531,273.5313 Q276.1094,273.6875 276.6719,273.9844 L276.6719,276.7031 Q276.0469,276.125 275.4531,275.8594 Q274.8594,275.5781 274.2344,275.5781 Q272.8906,275.5781 272.2031,276.6563 Q271.5156,277.7188 271.5156,279.8125 Q271.5156,281.9063 272.2031,282.9844 Q272.8906,284.0469 274.2344,284.0469 Q274.8594,284.0469 275.4531,283.7813 Q276.0469,283.5 276.6719,282.9219 L276.6719,285.6406 Z " fill="#000000"/><text fill="#000000" font-family="sans-serif" font-size="14" lengthAdjust="spacing" textLength="47.9883" x="294.2031" y="284.8467">Sensor</text><line style="stroke:#181818;stroke-width:0.5;" x1="161.5" x2="442.3945" y1="296" y2="296"/><ellipse cx="171.5" cy="309.6484" fill="none" rx="3" ry="3" style="stroke:#038048;stroke-width:1;"/><text fill="#000000" font-family="sans-serif" font-size="14" lengthAdjust="spacing" textLength="35.4785" x="180.5" y="312.9951">int id</text><ellipse cx="171.5" cy="325.9453" fill="none" rx="3" ry="3" style="stroke:#038048;stroke-width:1;"/><text fill="#000000" font-family="sans-serif" font-size="14" lengthAdjust="spacing" textLength="49.8203" x="180.5" y="329.292">str tipo</text><ellipse cx="171.5" cy="342.2422" fill="none" rx="3" ry="3" style="stroke:#038048;stroke-width:1;"/><text fill="#000000" font-family="sans-serif" font-size="14" lengthAdjust="spacing" textLength="100.2695" x="180.5" y="345.5889">str localizacao</text><ellipse cx="171.5" cy="358.5391" fill="none" rx="3" ry="3" style="stroke:#038048;stroke-width:1;"/><text fill="#000000" font-family="sans-serif" font-size="14" lengthAdjust="spacing" textLength="69.166" x="180.5" y="361.8857">bool ativo</text><line style="stroke:#181818;stroke-width:0.5;" x1="161.5" x2="442.3945" y1="369.1875" y2="369.1875"/><ellipse cx="171.5" cy="382.8359" fill="#84BE84" rx="3" ry="3" style="stroke:#038048;stroke-width:1;"/><text fill="#000000" font-family="sans-serif" font-size="14" lengthAdjust="spacing" textLength="256.8945" x="180.5" y="386.1826">registrar_leitura(valor: float): Leitura</text><ellipse cx="171.5" cy="399.1328" fill="#84BE84" rx="3" ry="3" style="stroke:#038048;stroke-width:1;"/><text fill="#000000" font-family="sans-serif" font-size="14" lengthAdjust="spacing" textLength="90.2959" x="180.5" y="402.4795">ativar(): void</text><ellipse cx="171.5" cy="415.4297" fill="#84BE84" rx="3" ry="3" style="stroke:#038048;stroke-width:1;"/><text fill="#000000" font-family="sans-serif" font-size="14" lengthAdjust="spacing" textLength="115.0898" x="180.5" y="418.7764">desativar(): void</text></g><!--class Leitura--><g class="entity" data-entity="Leitura" data-source-line="12" data-uid="ent0004" id="entity_Leitura"><rect fill="#F1F1F1" height="129.4844" rx="2.5" ry="2.5" style="stroke:#181818;stroke-width:0.5;" width="169.165" x="275.5" y="503"/><ellipse cx="331.3325" cy="519" fill="#ADD1B2" rx="11" ry="11" style="stroke:#181818;stroke-width:1;"/><path d="M334.3013,524.6406 Q333.7231,524.9375 333.0825,525.0781 Q332.4419,525.2344 331.7388,525.2344 Q329.2388,525.2344 327.9106,523.5938 Q326.5981,521.9375 326.5981,518.8125 Q326.5981,515.6875 327.9106,514.0313 Q329.2388,512.375 331.7388,512.375 Q332.4419,512.375 333.0825,512.5313 Q333.7388,512.6875 334.3013,512.9844 L334.3013,515.7031 Q333.6763,515.125 333.0825,514.8594 Q332.4888,514.5781 331.8638,514.5781 Q330.52,514.5781 329.8325,515.6563 Q329.145,516.7188 329.145,518.8125 Q329.145,520.9063 329.8325,521.9844 Q330.52,523.0469 331.8638,523.0469 Q332.4888,523.0469 333.0825,522.7813 Q333.6763,522.5 334.3013,521.9219 L334.3013,524.6406 Z " fill="#000000"/><text fill="#000000" font-family="sans-serif" font-size="14" lengthAdjust="spacing" textLength="49" x="351.8325" y="523.8467">Leitura</text><line style="stroke:#181818;stroke-width:0.5;" x1="276.5" x2="443.665" y1="535" y2="535"/><ellipse cx="286.5" cy="548.6484" fill="none" rx="3" ry="3" style="stroke:#038048;stroke-width:1;"/><text fill="#000000" font-family="sans-serif" font-size="14" lengthAdjust="spacing" textLength="35.4785" x="295.5" y="551.9951">int id</text><ellipse cx="286.5" cy="564.9453" fill="none" rx="3" ry="3" style="stroke:#038048;stroke-width:1;"/><text fill="#000000" font-family="sans-serif" font-size="14" lengthAdjust="spacing" textLength="88.874" x="295.5" y="568.292">int sensor_id</text><ellipse cx="286.5" cy="581.2422" fill="none" rx="3" ry="3" style="stroke:#038048;stroke-width:1;"/><text fill="#000000" font-family="sans-serif" font-size="14" lengthAdjust="spacing" textLength="70.9775" x="295.5" y="584.5889">float valor</text><ellipse cx="286.5" cy="597.5391" fill="none" rx="3" ry="3" style="stroke:#038048;stroke-width:1;"/><text fill="#000000" font-family="sans-serif" font-size="14" lengthAdjust="spacing" textLength="143.165" x="295.5" y="600.8857">datetime timestamp</text><line style="stroke:#181818;stroke-width:0.5;" x1="276.5" x2="443.665" y1="608.1875" y2="608.1875"/><ellipse cx="286.5" cy="621.8359" fill="#84BE84" rx="3" ry="3" style="stroke:#038048;stroke-width:1;"/><text fill="#000000" font-family="sans-serif" font-size="14" lengthAdjust="spacing" textLength="126.082" x="295.5" y="625.1826">e_perigosa(): bool</text></g><!--class Alerta--><g class="entity" data-entity="Alerta" data-source-line="20" data-uid="ent0005" id="entity_Alerta"><rect fill="#F1F1F1" height="178.375" rx="2.5" ry="2.5" style="stroke:#181818;stroke-width:0.5;" width="196.4678" x="112" y="709"/><ellipse cx="185.0317" cy="725" fill="#ADD1B2" rx="11" ry="11" style="stroke:#181818;stroke-width:1;"/><path d="M188.0005,730.6406 Q187.4224,730.9375 186.7817,731.0781 Q186.1411,731.2344 185.438,731.2344 Q182.938,731.2344 181.6099,729.5938 Q180.2974,727.9375 180.2974,724.8125 Q180.2974,721.6875 181.6099,720.0313 Q182.938,718.375 185.438,718.375 Q186.1411,718.375 186.7817,718.5313 Q187.438,718.6875 188.0005,718.9844 L188.0005,721.7031 Q187.3755,721.125 186.7817,720.8594 Q186.188,720.5781 185.563,720.5781 Q184.2192,720.5781 183.5317,721.6563 Q182.8442,722.7188 182.8442,724.8125 Q182.8442,726.9063 183.5317,727.9844 Q184.2192,729.0469 185.563,729.0469 Q186.188,729.0469 186.7817,728.7813 Q187.3755,728.5 188.0005,727.9219 L188.0005,730.6406 Z " fill="#000000"/><text fill="#000000" font-family="sans-serif" font-size="14" lengthAdjust="spacing" textLength="41.9043" x="205.5317" y="729.8467">Alerta</text><line style="stroke:#181818;stroke-width:0.5;" x1="113" x2="307.4678" y1="741" y2="741"/><ellipse cx="123" cy="754.6484" fill="none" rx="3" ry="3" style="stroke:#038048;stroke-width:1;"/><text fill="#000000" font-family="sans-serif" font-size="14" lengthAdjust="spacing" textLength="35.4785" x="132" y="757.9951">int id</text><ellipse cx="123" cy="770.9453" fill="none" rx="3" ry="3" style="stroke:#038048;stroke-width:1;"/><text fill="#000000" font-family="sans-serif" font-size="14" lengthAdjust="spacing" textLength="87.5684" x="132" y="774.292">int leitura_id</text><ellipse cx="123" cy="787.2422" fill="none" rx="3" ry="3" style="stroke:#038048;stroke-width:1;"/><text fill="#000000" font-family="sans-serif" font-size="14" lengthAdjust="spacing" textLength="88.874" x="132" y="790.5889">int sensor_id</text><ellipse cx="123" cy="803.5391" fill="none" rx="3" ry="3" style="stroke:#038048;stroke-width:1;"/><text fill="#000000" font-family="sans-serif" font-size="14" lengthAdjust="spacing" textLength="56.54" x="132" y="806.8857">str nivel</text><ellipse cx="123" cy="819.8359" fill="none" rx="3" ry="3" style="stroke:#038048;stroke-width:1;"/><text fill="#000000" font-family="sans-serif" font-size="14" lengthAdjust="spacing" textLength="101.124" x="132" y="823.1826">str mensagem</text><ellipse cx="123" cy="836.1328" fill="none" rx="3" ry="3" style="stroke:#038048;stroke-width:1;"/><text fill="#000000" font-family="sans-serif" font-size="14" lengthAdjust="spacing" textLength="143.165" x="132" y="839.4795">datetime timestamp</text><line style="stroke:#181818;stroke-width:0.5;" x1="113" x2="307.4678" y1="846.7813" y2="846.7813"/><ellipse cx="123" cy="860.4297" fill="#84BE84" rx="3" ry="3" style="stroke:#038048;stroke-width:1;"/><text fill="#000000" font-family="sans-serif" font-size="14" lengthAdjust="spacing" textLength="93.7139" x="132" y="863.7764">enviar(): void</text><ellipse cx="123" cy="876.7266" fill="#84BE84" rx="3" ry="3" style="stroke:#038048;stroke-width:1;"/><text fill="#000000" font-family="sans-serif" font-size="14" lengthAdjust="spacing" textLength="170.4678" x="132" y="880.0732">marcar_resolvido(): void</text></g><!--class Dispositivo--><g class="entity" data-entity="Dispositivo" data-source-line="31" data-uid="ent0006" id="entity_Dispositivo"><rect fill="#F1F1F1" height="145.7813" rx="2.5" ry="2.5" style="stroke:#181818;stroke-width:0.5;" width="161.7822" x="221" y="41"/><ellipse cx="259.8289" cy="57" fill="#ADD1B2" rx="11" ry="11" style="stroke:#181818;stroke-width:1;"/><path d="M262.7977,62.6406 Q262.2195,62.9375 261.5789,63.0781 Q260.9383,63.2344 260.2352,63.2344 Q257.7352,63.2344 256.407,61.5938 Q255.0945,59.9375 255.0945,56.8125 Q255.0945,53.6875 256.407,52.0313 Q257.7352,50.375 260.2352,50.375 Q260.9383,50.375 261.5789,50.5313 Q262.2352,50.6875 262.7977,50.9844 L262.7977,53.7031 Q262.1727,53.125 261.5789,52.8594 Q260.9852,52.5781 260.3602,52.5781 Q259.0164,52.5781 258.3289,53.6563 Q257.6414,54.7188 257.6414,56.8125 Q257.6414,58.9063 258.3289,59.9844 Q259.0164,61.0469 260.3602,61.0469 Q260.9852,61.0469 261.5789,60.7813 Q262.1727,60.5 262.7977,59.9219 L262.7977,62.6406 Z " fill="#000000"/><text fill="#000000" font-family="sans-serif" font-size="14" lengthAdjust="spacing" textLength="76.8291" x="279.1242" y="61.8467">Dispositivo</text><line style="stroke:#181818;stroke-width:0.5;" x1="222" x2="381.7822" y1="73" y2="73"/><ellipse cx="232" cy="86.6484" fill="none" rx="3" ry="3" style="stroke:#038048;stroke-width:1;"/><text fill="#000000" font-family="sans-serif" font-size="14" lengthAdjust="spacing" textLength="35.4785" x="241" y="89.9951">int id</text><ellipse cx="232" cy="102.9453" fill="none" rx="3" ry="3" style="stroke:#038048;stroke-width:1;"/><text fill="#000000" font-family="sans-serif" font-size="14" lengthAdjust="spacing" textLength="115.2129" x="241" y="106.292">str mac_address</text><ellipse cx="232" cy="119.2422" fill="none" rx="3" ry="3" style="stroke:#038048;stroke-width:1;"/><text fill="#000000" font-family="sans-serif" font-size="14" lengthAdjust="spacing" textLength="89.9678" x="241" y="122.5889">str descricao</text><ellipse cx="232" cy="135.5391" fill="none" rx="3" ry="3" style="stroke:#038048;stroke-width:1;"/><text fill="#000000" font-family="sans-serif" font-size="14" lengthAdjust="spacing" textLength="77.0615" x="241" y="138.8857">bool online</text><line style="stroke:#181818;stroke-width:0.5;" x1="222" x2="381.7822" y1="146.1875" y2="146.1875"/><ellipse cx="232" cy="159.8359" fill="#84BE84" rx="3" ry="3" style="stroke:#038048;stroke-width:1;"/><text fill="#000000" font-family="sans-serif" font-size="14" lengthAdjust="spacing" textLength="110.9883" x="241" y="163.1826">conectar(): void</text><ellipse cx="232" cy="176.1328" fill="#84BE84" rx="3" ry="3" style="stroke:#038048;stroke-width:1;"/><text fill="#000000" font-family="sans-serif" font-size="14" lengthAdjust="spacing" textLength="135.7822" x="241" y="179.4795">desconectar(): void</text></g><!--class Usuario--><g class="entity" data-entity="Usuario" data-source-line="40" data-uid="ent0007" id="entity_Usuario"><rect fill="#F1F1F1" height="129.4844" rx="2.5" ry="2.5" style="stroke:#181818;stroke-width:0.5;" width="217.7754" x="22" y="503"/><ellipse cx="100.0356" cy="519" fill="#ADD1B2" rx="11" ry="11" style="stroke:#181818;stroke-width:1;"/><path d="M103.0044,524.6406 Q102.4263,524.9375 101.7856,525.0781 Q101.145,525.2344 100.4419,525.2344 Q97.9419,525.2344 96.6138,523.5938 Q95.3013,521.9375 95.3013,518.8125 Q95.3013,515.6875 96.6138,514.0313 Q97.9419,512.375 100.4419,512.375 Q101.145,512.375 101.7856,512.5313 Q102.4419,512.6875 103.0044,512.9844 L103.0044,515.7031 Q102.3794,515.125 101.7856,514.8594 Q101.1919,514.5781 100.5669,514.5781 Q99.2231,514.5781 98.5356,515.6563 Q97.8481,516.7188 97.8481,518.8125 Q97.8481,520.9063 98.5356,521.9844 Q99.2231,523.0469 100.5669,523.0469 Q101.1919,523.0469 101.7856,522.7813 Q102.3794,522.5 103.0044,521.9219 L103.0044,524.6406 Z " fill="#000000"/><text fill="#000000" font-family="sans-serif" font-size="14" lengthAdjust="spacing" textLength="53.2041" x="120.5356" y="523.8467">Usuario</text><line style="stroke:#181818;stroke-width:0.5;" x1="23" x2="238.7754" y1="535" y2="535"/><ellipse cx="33" cy="548.6484" fill="none" rx="3" ry="3" style="stroke:#038048;stroke-width:1;"/><text fill="#000000" font-family="sans-serif" font-size="14" lengthAdjust="spacing" textLength="35.4785" x="42" y="551.9951">int id</text><ellipse cx="33" cy="564.9453" fill="none" rx="3" ry="3" style="stroke:#038048;stroke-width:1;"/><text fill="#000000" font-family="sans-serif" font-size="14" lengthAdjust="spacing" textLength="62.6787" x="42" y="568.292">str nome</text><ellipse cx="33" cy="581.2422" fill="none" rx="3" ry="3" style="stroke:#038048;stroke-width:1;"/><text fill="#000000" font-family="sans-serif" font-size="14" lengthAdjust="spacing" textLength="61.5986" x="42" y="584.5889">str email</text><ellipse cx="33" cy="597.5391" fill="none" rx="3" ry="3" style="stroke:#038048;stroke-width:1;"/><text fill="#000000" font-family="sans-serif" font-size="14" lengthAdjust="spacing" textLength="105.8408" x="42" y="600.8857">str senha_hash</text><line style="stroke:#181818;stroke-width:0.5;" x1="23" x2="238.7754" y1="608.1875" y2="608.1875"/><ellipse cx="33" cy="621.8359" fill="#84BE84" rx="3" ry="3" style="stroke:#038048;stroke-width:1;"/><text fill="#000000" font-family="sans-serif" font-size="14" lengthAdjust="spacing" textLength="191.7754" x="42" y="625.1826">autenticar(senha: str): bool</text></g><!--link Sensor to Leitura--><g class="link" data-entity-1="Sensor" data-entity-2="Leitura" data-source-line="49" data-uid="lnk8" id="link_Sensor_Leitura"><path codeLine="49" d="M323.1,426.23 C329.74,451.47 336.98,478.99 343.27,502.91" fill="none" id="Sensor-Leitura" style="stroke:#181818;stroke-width:1;"/><text fill="#000000" font-family="sans-serif" font-size="13" lengthAdjust="spacing" textLength="29.561" x="335" y="469.0669">gera</text><text fill="#000000" font-family="sans-serif" font-size="13" lengthAdjust="spacing" textLength="8.271" x="316.6397" y="446.2018">1</text><text fill="#000000" font-family="sans-serif" font-size="13" lengthAdjust="spacing" textLength="6.5" x="335.1303" y="492.0728">*</text></g><!--link Leitura to Alerta--><g class="link" data-entity-1="Leitura" data-entity-2="Alerta" data-source-line="50" data-uid="lnk9" id="link_Leitura_Alerta"><path codeLine="50" d="M318.22,632.15 C302.61,655.92 284.61,683.35 267.81,708.93" fill="none" id="Leitura-Alerta" style="stroke:#181818;stroke-width:1;"/><text fill="#000000" font-family="sans-serif" font-size="13" lengthAdjust="spacing" textLength="73.8613" x="299" y="675.0669">pode_gerar</text><text fill="#000000" font-family="sans-serif" font-size="13" lengthAdjust="spacing" textLength="8.271" x="304.9328" y="652.5389">1</text><text fill="#000000" font-family="sans-serif" font-size="13" lengthAdjust="spacing" textLength="24.8066" x="247.6177" y="697.9897">0..1</text></g><!--link Dispositivo to Sensor--><g class="link" data-entity-1="Dispositivo" data-entity-2="Sensor" data-source-line="51" data-uid="lnk10" id="link_Dispositivo_Sensor"><path codeLine="51" d="M302,187.14 C302,211.53 302,238.9 302,263.86" fill="none" id="Dispositivo-Sensor" style="stroke:#181818;stroke-width:1;"/><text fill="#000000" font-family="sans-serif" font-size="13" lengthAdjust="spacing" textLength="53.314" x="303" y="230.0669">controla</text><text fill="#000000" font-family="sans-serif" font-size="13" lengthAdjust="spacing" textLength="8.271" x="293.642" y="206.9096">1</text><text fill="#000000" font-family="sans-serif" font-size="13" lengthAdjust="spacing" textLength="6.5" x="295.7598" y="253.0348">*</text></g><!--link Usuario to Alerta--><g class="link" data-entity-1="Usuario" data-entity-2="Alerta" data-source-line="52" data-uid="lnk11" id="link_Usuario_Alerta"><path codeLine="52" d="M153.01,632.15 C161.22,655.92 170.71,683.35 179.55,708.93" fill="none" id="Usuario-Alerta" style="stroke:#181818;stroke-width:1;"/><text fill="#000000" font-family="sans-serif" font-size="13" lengthAdjust="spacing" textLength="44.7383" x="169" y="675.0669">recebe</text><text fill="#000000" font-family="sans-serif" font-size="13" lengthAdjust="spacing" textLength="23.0356" x="131.2403" y="652.5389">0..*</text><text fill="#000000" font-family="sans-serif" font-size="13" lengthAdjust="spacing" textLength="6.5" x="170.7813" y="697.9897">*</text></g><!--SRC=[XLDDJyCm3BtlLrWxZQ5DSEqDYIES4EVAIqrdaSQLa_K0uh-JjEd7O8DB5RyuViz-Relc7Mk2Pwd8UlXS0HYBtiCBEI_Q0m2tx09mDPnzK0ZSoXnPCMZv0mrcy21Y0GDtELQgEIQYbfOud1Gt7LhH0jwiOBWfu6c0X-pq47KJuKv6qehyB_XhDQdDxo_9JMVVDrEEKCyAlOHS7GC5RWZInmTisW6diYNbMZmcsjJLEUs39GrNMNElvHzAqlGSTsJdi8aPqP7c7sMkuvypQb1D7B6I5zjn9PT7zSY-5S_9d6lkDcXAhAfOoCzWTC0edriiphAZ0J3Yo8GBlbsuMCXvzITKlYh5IKDpH0toObHnc4SiZ-YFUN5EWLo86dNJNnKGivR6HTwyr-lxDUnsiDwkfzqfeAQuWcCuPjpjz_6KdIwWZJzAcH9rjPpaebvcA20s7bGihiOUKwtjb3ULL39qe6y0]--></g></svg>